<?xml version="1.0" encoding="utf-8"?>
<!-- Generator: Adobe Illustrator 19.1.0, SVG Export Plug-In . SVG Version: 6.00 Build 0)  -->
<svg version="1.1" id="Layer_1" xmlns="http://www.w3.org/2000/svg" xmlns:xlink="http://www.w3.org/1999/xlink" x="0px" y="0px"
	 viewBox="0 0 216 144" style="enable-background:new 0 0 216 144;" xml:space="preserve">
<style type="text/css">
	.st0{fill:#010101;}
	.st1{fill:#FFFFFF;}
</style>
<g id="XMLID_555_">
	<circle id="XMLID_569_" class="st0" cx="108" cy="72" r="33.9"/>
	<g>
		<path class="st1" d="M80.1,70.2l3,0.2l0,0.4l-3-0.2L80,71.8l-0.4,0l0.2-2.8l0.4,0L80.1,70.2z"/>
		<path class="st1" d="M83.8,65.9l-1.5,0.3L82.1,67l1.4,0.3l-0.1,0.4L80.1,67l0.3-1.1c0.1-0.4,0.3-0.6,0.5-0.8
			c0.2-0.1,0.4-0.2,0.7-0.1c0.3,0.1,0.5,0.2,0.6,0.4c0.1,0.1,0.1,0.3,0.1,0.5l1.6-0.3L83.8,65.9z M80.7,65.9l-0.2,0.7l1.2,0.3
			l0.2-0.7c0.1-0.4,0-0.7-0.4-0.8C81.1,65.3,80.8,65.5,80.7,65.9z"/>
		<path class="st1" d="M84.9,62.9c-0.3,0.7-0.9,0.9-1.7,0.6l-2-0.8l0.2-0.4l2,0.8c0.5,0.2,0.9,0.1,1.1-0.4c0.2-0.5-0.1-0.9-0.6-1
			l-2-0.8l0.2-0.4l2,0.8C84.8,61.6,85.2,62.1,84.9,62.9z"/>
		<path class="st1" d="M86.9,58.8l-3.1-0.2l2.4,1.4L86,60.3L83,58.6l0.3-0.5l3.1,0.2L84,56.9l0.2-0.4l2.9,1.7L86.9,58.8z"/>
		<path class="st1" d="M89.4,55.4l-2-0.3l0.1,0.9l0.8,0.7l-0.3,0.3l-2.6-2.2l0.3-0.3l1.3,1.1l-0.4-2.3l0.3-0.4l0.3,1.8l2.4,0.4
			L89.4,55.4z"/>
		<path class="st1" d="M94.9,50.9c-0.3,0.2-0.6,0.2-0.9,0.2c-0.5-0.1-0.8-0.5-1.1-1c-0.3-0.4-0.5-0.9-0.4-1.4
			c0.1-0.3,0.3-0.6,0.6-0.8c0.6-0.4,1.3-0.2,1.6,0.3l-0.4,0.2c-0.1-0.2-0.3-0.3-0.4-0.3c-0.2-0.1-0.4,0-0.6,0.1
			c-0.2,0.1-0.3,0.3-0.4,0.5c-0.1,0.4,0.2,0.8,0.4,1.1c0.2,0.3,0.4,0.7,0.8,0.8c0.2,0.1,0.4,0,0.6-0.1c0.4-0.2,0.5-0.7,0.3-1.1
			l0.4-0.2C95.7,49.8,95.5,50.5,94.9,50.9z"/>
		<path class="st1" d="M97.5,49.4l-1.3-3.1l0.4-0.2l1.2,2.8l1.6-0.7l0.2,0.4L97.5,49.4z"/>
		<path class="st1" d="M102.1,47.9c-0.8,0.2-1.3-0.2-1.5-1l-0.5-2.1l0.4-0.1l0.5,2.1c0.1,0.5,0.4,0.8,1,0.7c0.5-0.1,0.7-0.6,0.5-1.1
			l-0.5-2.1l0.4-0.1l0.5,2.1C103.1,47.1,102.9,47.7,102.1,47.9z"/>
		<path class="st1" d="M107,46.8c-0.2,0.2-0.5,0.3-0.8,0.4l-1.1,0.1l-0.3-3.4l1.1-0.1c0.3,0,0.6,0,0.8,0.2c0.1,0.1,0.2,0.3,0.3,0.6
			c0,0.3-0.1,0.7-0.4,0.8c0.4,0.1,0.6,0.4,0.6,0.8C107.2,46.4,107.1,46.6,107,46.8z M105.9,44.1l-0.7,0.1l0.1,1.1l0.7-0.1
			c0.4,0,0.6-0.2,0.6-0.6C106.5,44.3,106.2,44.1,105.9,44.1z M106,45.6l-0.7,0.1l0.1,1.2l0.7-0.1c0.4,0,0.7-0.2,0.6-0.6
			C106.7,45.8,106.4,45.6,106,45.6z"/>
		<path class="st1" d="M114.8,44.9l-0.7,2.9l-0.4-0.1l0.7-2.9l-1.1-0.3l0.1-0.4l2.7,0.6l-0.1,0.4L114.8,44.9z"/>
		<path class="st1" d="M116.7,48.6l1.3-3.1l2.1,0.9l-0.2,0.4l-1.7-0.7l-0.4,1l1.3,0.5l-0.2,0.4l-1.3-0.5l-0.5,1.1l1.7,0.7l-0.2,0.4
			L116.7,48.6z"/>
		<path class="st1" d="M121.2,51c-0.3-0.2-0.5-0.4-0.6-0.8c-0.1-0.5,0.1-1,0.4-1.4c0.3-0.4,0.6-0.9,1.1-1c0.3-0.1,0.7,0,0.9,0.2
			c0.6,0.3,0.8,1,0.4,1.6l-0.4-0.2c0.1-0.2,0.1-0.4,0.1-0.5c0-0.2-0.2-0.4-0.4-0.5c-0.2-0.1-0.4-0.1-0.6-0.1
			c-0.4,0.1-0.6,0.5-0.8,0.8c-0.2,0.3-0.4,0.7-0.3,1.1c0,0.2,0.2,0.4,0.4,0.5c0.4,0.2,0.8,0.1,1.1-0.2l0.4,0.2
			C122.5,51.2,121.7,51.3,121.2,51z"/>
		<path class="st1" d="M124.9,53.7l1-1.2l-1.1-1l-1,1.2l-0.3-0.3l2.2-2.6l0.3,0.3l-0.9,1.1l1.1,1l0.9-1.1l0.3,0.3l-2.2,2.6
			L124.9,53.7z"/>
		<path class="st1" d="M131.9,61.3l0.4-0.1l0.9,2.2l-0.4,0.1L131.9,61.3z"/>
		<path class="st1" d="M135.8,75.1l-3-0.3l0-0.4l3,0.3l0.1-1.2l0.4,0l-0.3,2.7l-0.4,0L135.8,75.1z"/>
		<path class="st1" d="M131.9,79.2l1.5-0.3l0.2-0.8l-1.4-0.4l0.1-0.4l3.3,0.9l-0.3,1.1c-0.1,0.4-0.3,0.6-0.5,0.8
			c-0.2,0.1-0.5,0.2-0.7,0.1c-0.3-0.1-0.5-0.2-0.6-0.4c-0.1-0.1-0.1-0.3-0.1-0.5l-1.6,0.3L131.9,79.2z M135,79.3l0.2-0.7l-1.2-0.3
			l-0.2,0.7c-0.1,0.4,0,0.7,0.4,0.8C134.6,79.9,134.9,79.7,135,79.3z"/>
		<path class="st1" d="M130.7,82.1c0.3-0.7,1-0.9,1.7-0.6l2,0.9l-0.2,0.4l-2-0.9c-0.5-0.2-0.9-0.2-1.1,0.3c-0.2,0.5,0,0.9,0.5,1.1
			l2,0.9l-0.2,0.4l-2-0.9C130.7,83.4,130.4,82.9,130.7,82.1z"/>
		<path class="st1" d="M128.5,86.2l3.1,0.4l-2.3-1.5l0.2-0.4l2.9,1.9L132,87l-3.1-0.4l2.3,1.5l-0.2,0.3l-2.9-1.9L128.5,86.2z"/>
		<path class="st1" d="M125.8,89.4l1.9,0.4l-0.1-0.9l-0.8-0.7l0.3-0.3l2.5,2.3l-0.3,0.3l-1.3-1.2l0.3,2.3l-0.4,0.4l-0.2-1.8
			l-2.3-0.5L125.8,89.4z"/>
		<path class="st1" d="M120.1,93.7c0.3-0.2,0.6-0.2,0.9-0.1c0.5,0.1,0.8,0.6,1.1,1c0.2,0.4,0.5,0.9,0.3,1.4
			c-0.1,0.3-0.3,0.6-0.6,0.8c-0.6,0.3-1.3,0.2-1.6-0.4l0.4-0.2c0.1,0.2,0.3,0.3,0.4,0.3c0.2,0.1,0.4,0,0.6-0.1
			c0.2-0.1,0.3-0.3,0.4-0.5c0.1-0.4-0.1-0.8-0.3-1.1c-0.2-0.3-0.4-0.7-0.8-0.8c-0.2-0.1-0.4-0.1-0.6,0.1c-0.4,0.2-0.5,0.7-0.3,1
			l-0.4,0.2C119.3,94.7,119.6,94,120.1,93.7z"/>
		<path class="st1" d="M117.4,95.1l1.2,3.2l-0.4,0.1l-1-2.8l-1.7,0.6l-0.1-0.4L117.4,95.1z"/>
		<path class="st1" d="M112.8,96.4c0.8-0.2,1.3,0.3,1.4,1.1l0.4,2.1l-0.4,0.1l-0.4-2.1c-0.1-0.5-0.4-0.8-0.9-0.7
			c-0.5,0.1-0.7,0.5-0.6,1l0.4,2.1l-0.4,0.1l-0.4-2.1C111.7,97.1,112,96.5,112.8,96.4z"/>
		<path class="st1" d="M107.9,97.2c0.2-0.2,0.5-0.3,0.8-0.3l1.1,0l0.1,3.4l-1.1,0c-0.3,0-0.6-0.1-0.8-0.3c-0.1-0.1-0.2-0.3-0.2-0.6
			c0-0.3,0.2-0.6,0.5-0.8c-0.4-0.1-0.6-0.4-0.6-0.8C107.6,97.6,107.7,97.4,107.9,97.2z M108.8,98.5l0.7,0l0-1.2l-0.7,0
			c-0.4,0-0.7,0.2-0.6,0.6C108.1,98.3,108.4,98.5,108.8,98.5z M108.8,99.9l0.7,0l0-1.1l-0.7,0c-0.4,0-0.6,0.2-0.6,0.6
			C108.2,99.8,108.5,99.9,108.8,99.9z"/>
		<path class="st1" d="M100,98.7l0.8-2.9l0.4,0.1l-0.8,2.9l1.1,0.3l-0.1,0.4l-2.6-0.8l0.1-0.4L100,98.7z"/>
		<path class="st1" d="M98.2,94.9L96.8,98l-2-1l0.2-0.4l1.7,0.8l0.4-0.9L95.8,96l0.2-0.4l1.2,0.6l0.5-1.1L96,94.3l0.2-0.4L98.2,94.9
			z"/>
		<path class="st1" d="M93.9,92.4c0.3,0.2,0.5,0.5,0.5,0.8c0.1,0.5-0.2,1-0.5,1.4c-0.3,0.4-0.6,0.8-1.1,0.9c-0.3,0.1-0.7,0-0.9-0.2
			c-0.5-0.4-0.7-1.1-0.4-1.6l0.4,0.3c-0.1,0.2-0.1,0.4-0.1,0.5c0,0.2,0.1,0.4,0.3,0.5c0.2,0.1,0.4,0.2,0.6,0.1
			c0.4-0.1,0.6-0.4,0.9-0.8c0.2-0.3,0.5-0.7,0.4-1.1c0-0.2-0.1-0.4-0.3-0.5c-0.4-0.2-0.8-0.2-1.1,0.2l-0.4-0.3
			C92.6,92.2,93.3,92.1,93.9,92.4z"/>
		<path class="st1" d="M90.3,89.5l-1.1,1.1l1,1l1.1-1.1l0.3,0.3l-2.4,2.5L89,93l1-1l-1-1l-1,1l-0.3-0.3l2.4-2.5L90.3,89.5z"/>
		<path class="st1" d="M83.6,81.6l-0.4,0.1l-0.8-2.3l0.4-0.1L83.6,81.6z"/>
	</g>
	<g id="XMLID_556_">
		<g>
			<path class="st1" d="M119.1,82.4H95.9c-0.8,0-1.4-0.6-1.4-1.1V64.6c0-1.2,0.7-1.7,1.4-1.7h23.2c0.8,0,1.4,0.6,1.4,1.4v2h-0.7v-2
				c0-0.4-0.3-0.7-0.7-0.7H95.9c-0.4,0-0.7,0.4-0.7,1v16.7c0,0.1,0.3,0.4,0.7,0.4h23.2c0.4,0,0.7-0.3,0.7-0.7v-3.7
				c0-0.4-0.3-0.7-0.7-0.7h-6v-0.7h6c0.8,0,1.4,0.6,1.4,1.4V81C120.5,81.8,119.8,82.4,119.1,82.4z"/>
			<path class="st1" d="M103.3,71.7h-0.7V61.3c0-0.8,0.6-1.4,1.4-1.4h6.9c0.8,0,1.4,0.6,1.4,1.4v4.9c0,0.8-0.6,1.4-1.4,1.4h-2.4V67
				h2.4c0.4,0,0.7-0.3,0.7-0.7v-4.9c0-0.4-0.3-0.7-0.7-0.7H104c-0.4,0-0.7,0.3-0.7,0.7V71.7z"/>
			<path class="st1" d="M112,77.6c-0.8,0-1.4-0.6-1.4-1.4s0.6-1.4,1.4-1.4c0.8,0,1.4,0.6,1.4,1.4S112.7,77.6,112,77.6z M112,75.5
				c-0.4,0-0.7,0.3-0.7,0.7s0.3,0.7,0.7,0.7c0.4,0,0.7-0.3,0.7-0.7S112.4,75.5,112,75.5z"/>
			<path class="st1" d="M103,74.2c-0.8,0-1.4-0.6-1.4-1.4c0-0.8,0.6-1.4,1.4-1.4c0.8,0,1.4,0.6,1.4,1.4
				C104.4,73.6,103.7,74.2,103,74.2z M103,72.1c-0.4,0-0.7,0.3-0.7,0.7c0,0.4,0.3,0.7,0.7,0.7c0.4,0,0.7-0.3,0.7-0.7
				C103.7,72.4,103.4,72.1,103,72.1z"/>
			<path class="st1" d="M98.9,68.7c-0.8,0-1.4-0.6-1.4-1.4c0-0.8,0.6-1.4,1.4-1.4s1.4,0.6,1.4,1.4C100.3,68.1,99.7,68.7,98.9,68.7z
				 M98.9,66.6c-0.4,0-0.7,0.3-0.7,0.7c0,0.4,0.3,0.7,0.7,0.7s0.7-0.3,0.7-0.7C99.6,66.9,99.3,66.6,98.9,66.6z"/>
			<path class="st1" d="M120.1,68.7c-0.8,0-1.4-0.6-1.4-1.4c0-0.8,0.6-1.4,1.4-1.4c0.8,0,1.4,0.6,1.4,1.4
				C121.5,68.1,120.9,68.7,120.1,68.7z M120.1,66.6c-0.4,0-0.7,0.3-0.7,0.7c0,0.4,0.3,0.7,0.7,0.7c0.4,0,0.7-0.3,0.7-0.7
				C120.9,66.9,120.5,66.6,120.1,66.6z"/>
			<path class="st1" d="M107.5,68.7c-0.8,0-1.4-0.6-1.4-1.4c0-0.8,0.6-1.4,1.4-1.4s1.4,0.6,1.4,1.4
				C108.9,68.1,108.2,68.7,107.5,68.7z M107.5,66.6c-0.4,0-0.7,0.3-0.7,0.7c0,0.4,0.3,0.7,0.7,0.7s0.7-0.3,0.7-0.7
				C108.2,66.9,107.9,66.6,107.5,66.6z"/>
			<path class="st1" d="M106.4,78.5H94.8v-0.7h11.6c0.4,0,0.7-0.3,0.7-0.7v-4.3c0-0.8,0.6-1.4,1.4-1.4h10.5v0.7h-10.5
				c-0.4,0-0.7,0.3-0.7,0.7v4.3C107.8,77.9,107.2,78.5,106.4,78.5z"/>
			<path class="st1" d="M120.1,73.2c-0.8,0-1.4-0.6-1.4-1.4c0-0.8,0.6-1.4,1.4-1.4c0.8,0,1.4,0.6,1.4,1.4
				C121.5,72.5,120.9,73.2,120.1,73.2z M120.1,71.1c-0.4,0-0.7,0.3-0.7,0.7c0,0.4,0.3,0.7,0.7,0.7c0.4,0,0.7-0.3,0.7-0.7
				C120.9,71.4,120.5,71.1,120.1,71.1z"/>
			<rect x="98.6" y="68.4" class="st1" width="0.7" height="13.7"/>
		</g>
	</g>
</g>
</svg>
