<?xml version="1.0" encoding="UTF-8" standalone="no"?>
<svg width="68px" height="68px" viewBox="0 0 68 68" version="1.1" xmlns="http://www.w3.org/2000/svg" xmlns:xlink="http://www.w3.org/1999/xlink" xmlns:sketch="http://www.bohemiancoding.com/sketch/ns">
    <!-- Generator: Sketch 3.5.2 (25235) - http://www.bohemiancoding.com/sketch -->
    <title>Logo-TC_Tech-02</title>
    <desc>Created with Sketch.</desc>
    <defs></defs>
    <g id="Page-1" stroke="none" stroke-width="1" fill="none" fill-rule="evenodd" sketch:type="MSPage">
        <g id="Desktop" sketch:type="MSArtboardGroup" transform="translate(-715.000000, -751.000000)">
            <g id="Logo-TC_Tech-02" sketch:type="MSLayerGroup" transform="translate(715.000000, 751.000000)">
                <g id="Layer_1" sketch:type="MSShapeGroup">
                    <g id="XMLID_555_">
                        <circle id="XMLID_569_" fill="#010101" cx="34" cy="34" r="33.9"></circle>
                        <g id="Group" transform="translate(5.000000, 5.000000)" fill="#FFFFFF">
                            <path d="M1.1,27.2 L4.1,27.4 L4.1,27.8 L1.1,27.6 L1,28.8 L0.6,28.8 L0.8,26 L1.2,26 L1.1,27.2 L1.1,27.2 Z" id="Shape"></path>
                            <path d="M4.8,22.9 L3.3,23.2 L3.1,24 L4.5,24.3 L4.4,24.7 L1.1,24 L1.4,22.9 C1.5,22.5 1.7,22.3 1.9,22.1 C2.1,22 2.3,21.9 2.6,22 C2.9,22.1 3.1,22.2 3.2,22.4 C3.3,22.5 3.3,22.7 3.3,22.9 L4.9,22.6 L4.8,22.9 L4.8,22.9 Z M1.7,22.9 L1.5,23.6 L2.7,23.9 L2.9,23.2 C3,22.8 2.9,22.5 2.5,22.4 C2.1,22.3 1.8,22.5 1.7,22.9 L1.7,22.9 Z" id="Shape"></path>
                            <path d="M5.9,19.9 C5.6,20.6 5,20.8 4.2,20.5 L2.2,19.7 L2.4,19.3 L4.4,20.1 C4.9,20.3 5.3,20.2 5.5,19.7 C5.7,19.2 5.4,18.8 4.9,18.7 L2.9,17.9 L3.1,17.5 L5.1,18.3 C5.8,18.6 6.2,19.1 5.9,19.9 L5.9,19.9 Z" id="Shape"></path>
                            <path d="M7.9,15.8 L4.8,15.6 L7.2,17 L7,17.3 L4,15.6 L4.3,15.1 L7.4,15.3 L5,13.9 L5.2,13.5 L8.1,15.2 L7.9,15.8 L7.9,15.8 Z" id="Shape"></path>
                            <path d="M10.4,12.4 L8.4,12.1 L8.5,13 L9.3,13.7 L9,14 L6.4,11.8 L6.7,11.5 L8,12.6 L7.6,10.3 L7.9,9.9 L8.2,11.7 L10.6,12.1 L10.4,12.4 L10.4,12.4 Z" id="Shape"></path>
                            <path d="M15.9,7.9 C15.6,8.1 15.3,8.1 15,8.1 C14.5,8 14.2,7.6 13.9,7.1 C13.6,6.7 13.4,6.2 13.5,5.7 C13.6,5.4 13.8,5.1 14.1,4.9 C14.7,4.5 15.4,4.7 15.7,5.2 L15.3,5.4 C15.2,5.2 15,5.1 14.9,5.1 C14.7,5 14.5,5.1 14.3,5.2 C14.1,5.3 14,5.5 13.9,5.7 C13.8,6.1 14.1,6.5 14.3,6.8 C14.5,7.1 14.7,7.5 15.1,7.6 C15.3,7.7 15.5,7.6 15.7,7.5 C16.1,7.3 16.2,6.8 16,6.4 L16.4,6.2 C16.7,6.8 16.5,7.5 15.9,7.9 L15.9,7.9 Z" id="Shape"></path>
                            <path d="M18.5,6.4 L17.2,3.3 L17.6,3.1 L18.8,5.9 L20.4,5.2 L20.6,5.6 L18.5,6.4 L18.5,6.4 Z" id="Shape"></path>
                            <path d="M23.1,4.9 C22.3,5.1 21.8,4.7 21.6,3.9 L21.1,1.8 L21.5,1.7 L22,3.8 C22.1,4.3 22.4,4.6 23,4.5 C23.5,4.4 23.7,3.9 23.5,3.4 L23,1.3 L23.4,1.2 L23.9,3.3 C24.1,4.1 23.9,4.7 23.1,4.9 L23.1,4.9 Z" id="Shape"></path>
                            <path d="M28,3.8 C27.8,4 27.5,4.1 27.2,4.2 L26.1,4.3 L25.8,0.9 L26.9,0.8 C27.2,0.8 27.5,0.8 27.7,1 C27.8,1.1 27.9,1.3 28,1.6 C28,1.9 27.9,2.3 27.6,2.4 C28,2.5 28.2,2.8 28.2,3.2 C28.2,3.4 28.1,3.6 28,3.8 L28,3.8 Z M26.9,1.1 L26.2,1.2 L26.3,2.3 L27,2.2 C27.4,2.2 27.6,2 27.6,1.6 C27.5,1.3 27.2,1.1 26.9,1.1 L26.9,1.1 Z M27,2.6 L26.3,2.7 L26.4,3.9 L27.1,3.8 C27.5,3.8 27.8,3.6 27.7,3.2 C27.7,2.8 27.4,2.6 27,2.6 L27,2.6 Z" id="Shape"></path>
                            <path d="M35.8,1.9 L35.1,4.8 L34.7,4.7 L35.4,1.8 L34.3,1.5 L34.4,1.1 L37.1,1.7 L37,2.1 L35.8,1.9 L35.8,1.9 Z" id="Shape"></path>
                            <path d="M37.7,5.6 L39,2.5 L41.1,3.4 L40.9,3.8 L39.2,3.1 L38.8,4.1 L40.1,4.6 L39.9,5 L38.6,4.5 L38.1,5.6 L39.8,6.3 L39.6,6.7 L37.7,5.6 L37.7,5.6 Z" id="Shape"></path>
                            <path d="M42.2,8 C41.9,7.8 41.7,7.6 41.6,7.2 C41.5,6.7 41.7,6.2 42,5.8 C42.3,5.4 42.6,4.9 43.1,4.8 C43.4,4.7 43.8,4.8 44,5 C44.6,5.3 44.8,6 44.4,6.6 L44,6.4 C44.1,6.2 44.1,6 44.1,5.9 C44.1,5.7 43.9,5.5 43.7,5.4 C43.5,5.3 43.3,5.3 43.1,5.3 C42.7,5.4 42.5,5.8 42.3,6.1 C42.1,6.4 41.9,6.8 42,7.2 C42,7.4 42.2,7.6 42.4,7.7 C42.8,7.9 43.2,7.8 43.5,7.5 L43.9,7.7 C43.5,8.2 42.7,8.3 42.2,8 L42.2,8 Z" id="Shape"></path>
                            <path d="M45.9,10.7 L46.9,9.5 L45.8,8.5 L44.8,9.7 L44.5,9.4 L46.7,6.8 L47,7.1 L46.1,8.2 L47.2,9.2 L48.1,8.1 L48.4,8.4 L46.2,11 L45.9,10.7 L45.9,10.7 Z" id="Shape"></path>
                            <path d="M52.9,18.3 L53.3,18.2 L54.2,20.4 L53.8,20.5 L52.9,18.3 L52.9,18.3 Z" id="Shape"></path>
                            <path d="M56.8,32.1 L53.8,31.8 L53.8,31.4 L56.8,31.7 L56.9,30.5 L57.3,30.5 L57,33.2 L56.6,33.2 L56.8,32.1 L56.8,32.1 Z" id="Shape"></path>
                            <path d="M52.9,36.2 L54.4,35.9 L54.6,35.1 L53.2,34.7 L53.3,34.3 L56.6,35.2 L56.3,36.3 C56.2,36.7 56,36.9 55.8,37.1 C55.6,37.2 55.3,37.3 55.1,37.2 C54.8,37.1 54.6,37 54.5,36.8 C54.4,36.7 54.4,36.5 54.4,36.3 L52.8,36.6 L52.9,36.2 L52.9,36.2 Z M56,36.3 L56.2,35.6 L55,35.3 L54.8,36 C54.7,36.4 54.8,36.7 55.2,36.8 C55.6,36.9 55.9,36.7 56,36.3 L56,36.3 Z" id="Shape"></path>
                            <path d="M51.7,39.1 C52,38.4 52.7,38.2 53.4,38.5 L55.4,39.4 L55.2,39.8 L53.2,38.9 C52.7,38.7 52.3,38.7 52.1,39.2 C51.9,39.7 52.1,40.1 52.6,40.3 L54.6,41.2 L54.4,41.6 L52.4,40.7 C51.7,40.4 51.4,39.9 51.7,39.1 L51.7,39.1 Z" id="Shape"></path>
                            <path d="M49.5,43.2 L52.6,43.6 L50.3,42.1 L50.5,41.7 L53.4,43.6 L53,44 L49.9,43.6 L52.2,45.1 L52,45.4 L49.1,43.5 L49.5,43.2 L49.5,43.2 Z" id="Shape"></path>
                            <path d="M46.8,46.4 L48.7,46.8 L48.6,45.9 L47.8,45.2 L48.1,44.9 L50.6,47.2 L50.3,47.5 L49,46.3 L49.3,48.6 L48.9,49 L48.7,47.2 L46.4,46.7 L46.8,46.4 L46.8,46.4 Z" id="Shape"></path>
                            <path d="M41.1,50.7 C41.4,50.5 41.7,50.5 42,50.6 C42.5,50.7 42.8,51.2 43.1,51.6 C43.3,52 43.6,52.5 43.4,53 C43.3,53.3 43.1,53.6 42.8,53.8 C42.2,54.1 41.5,54 41.2,53.4 L41.6,53.2 C41.7,53.4 41.9,53.5 42,53.5 C42.2,53.6 42.4,53.5 42.6,53.4 C42.8,53.3 42.9,53.1 43,52.9 C43.1,52.5 42.9,52.1 42.7,51.8 C42.5,51.5 42.3,51.1 41.9,51 C41.7,50.9 41.5,50.9 41.3,51.1 C40.9,51.3 40.8,51.8 41,52.1 L40.6,52.3 C40.3,51.7 40.6,51 41.1,50.7 L41.1,50.7 Z" id="Shape"></path>
                            <path d="M38.4,52.1 L39.6,55.3 L39.2,55.4 L38.2,52.6 L36.5,53.2 L36.4,52.8 L38.4,52.1 L38.4,52.1 Z" id="Shape"></path>
                            <path d="M33.8,53.4 C34.6,53.2 35.1,53.7 35.2,54.5 L35.6,56.6 L35.2,56.7 L34.8,54.6 C34.7,54.1 34.4,53.8 33.9,53.9 C33.4,54 33.2,54.4 33.3,54.9 L33.7,57 L33.3,57.1 L32.9,55 C32.7,54.1 33,53.5 33.8,53.4 L33.8,53.4 Z" id="Shape"></path>
                            <path d="M28.9,54.2 C29.1,54 29.4,53.9 29.7,53.9 L30.8,53.9 L30.9,57.3 L29.8,57.3 C29.5,57.3 29.2,57.2 29,57 C28.9,56.9 28.8,56.7 28.8,56.4 C28.8,56.1 29,55.8 29.3,55.6 C28.9,55.5 28.7,55.2 28.7,54.8 C28.6,54.6 28.7,54.4 28.9,54.2 L28.9,54.2 Z M29.8,55.5 L30.5,55.5 L30.5,54.3 L29.8,54.3 C29.4,54.3 29.1,54.5 29.2,54.9 C29.1,55.3 29.4,55.5 29.8,55.5 L29.8,55.5 Z M29.8,56.9 L30.5,56.9 L30.5,55.8 L29.8,55.8 C29.4,55.8 29.2,56 29.2,56.4 C29.2,56.8 29.5,56.9 29.8,56.9 L29.8,56.9 Z" id="Shape"></path>
                            <path d="M21,55.7 L21.8,52.8 L22.2,52.9 L21.4,55.8 L22.5,56.1 L22.4,56.5 L19.8,55.7 L19.9,55.3 L21,55.7 L21,55.7 Z" id="Shape"></path>
                            <path d="M19.2,51.9 L17.8,55 L15.8,54 L16,53.6 L17.7,54.4 L18.1,53.5 L16.8,53 L17,52.6 L18.2,53.2 L18.7,52.1 L17,51.3 L17.2,50.9 L19.2,51.9 L19.2,51.9 Z" id="Shape"></path>
                            <path d="M14.9,49.4 C15.2,49.6 15.4,49.9 15.4,50.2 C15.5,50.7 15.2,51.2 14.9,51.6 C14.6,52 14.3,52.4 13.8,52.5 C13.5,52.6 13.1,52.5 12.9,52.3 C12.4,51.9 12.2,51.2 12.5,50.7 L12.9,51 C12.8,51.2 12.8,51.4 12.8,51.5 C12.8,51.7 12.9,51.9 13.1,52 C13.3,52.1 13.5,52.2 13.7,52.1 C14.1,52 14.3,51.7 14.6,51.3 C14.8,51 15.1,50.6 15,50.2 C15,50 14.9,49.8 14.7,49.7 C14.3,49.5 13.9,49.5 13.6,49.9 L13.2,49.6 C13.6,49.2 14.3,49.1 14.9,49.4 L14.9,49.4 Z" id="Shape"></path>
                            <path d="M11.3,46.5 L10.2,47.6 L11.2,48.6 L12.3,47.5 L12.6,47.8 L10.2,50.3 L10,50 L11,49 L10,48 L9,49 L8.7,48.7 L11.1,46.2 L11.3,46.5 L11.3,46.5 Z" id="Shape"></path>
                            <path d="M4.6,38.6 L4.2,38.7 L3.4,36.4 L3.8,36.3 L4.6,38.6 L4.6,38.6 Z" id="Shape"></path>
                        </g>
                        <g id="XMLID_556_" transform="translate(20.000000, 21.000000)" fill="#FFFFFF">
                            <g id="Group">
                                <path d="M25.1,23.4 L1.9,23.4 C1.1,23.4 0.5,22.8 0.5,22.3 L0.5,5.6 C0.5,4.4 1.2,3.9 1.9,3.9 L25.1,3.9 C25.9,3.9 26.5,4.5 26.5,5.3 L26.5,7.3 L25.8,7.3 L25.8,5.3 C25.8,4.9 25.5,4.6 25.1,4.6 L1.9,4.6 C1.5,4.6 1.2,5 1.2,5.6 L1.2,22.3 C1.2,22.4 1.5,22.7 1.9,22.7 L25.1,22.7 C25.5,22.7 25.8,22.4 25.8,22 L25.8,18.3 C25.8,17.9 25.5,17.6 25.1,17.6 L19.1,17.6 L19.1,16.9 L25.1,16.9 C25.9,16.9 26.5,17.5 26.5,18.3 L26.5,22 C26.5,22.8 25.8,23.4 25.1,23.4 L25.1,23.4 Z" id="Shape"></path>
                                <path d="M9.3,12.7 L8.6,12.7 L8.6,2.3 C8.6,1.5 9.2,0.9 10,0.9 L16.9,0.9 C17.7,0.9 18.3,1.5 18.3,2.3 L18.3,7.2 C18.3,8 17.7,8.6 16.9,8.6 L14.5,8.6 L14.5,8 L16.9,8 C17.3,8 17.6,7.7 17.6,7.3 L17.6,2.4 C17.6,2 17.3,1.7 16.9,1.7 L10,1.7 C9.6,1.7 9.3,2 9.3,2.4 L9.3,12.7 L9.3,12.7 Z" id="Shape"></path>
                                <path d="M18,18.6 C17.2,18.6 16.6,18 16.6,17.2 C16.6,16.4 17.2,15.8 18,15.8 C18.8,15.8 19.4,16.4 19.4,17.2 C19.4,18 18.7,18.6 18,18.6 L18,18.6 Z M18,16.5 C17.6,16.5 17.3,16.8 17.3,17.2 C17.3,17.6 17.6,17.9 18,17.9 C18.4,17.9 18.7,17.6 18.7,17.2 C18.7,16.8 18.4,16.5 18,16.5 L18,16.5 Z" id="Shape"></path>
                                <path d="M9,15.2 C8.2,15.2 7.6,14.6 7.6,13.8 C7.6,13 8.2,12.4 9,12.4 C9.8,12.4 10.4,13 10.4,13.8 C10.4,14.6 9.7,15.2 9,15.2 L9,15.2 Z M9,13.1 C8.6,13.1 8.3,13.4 8.3,13.8 C8.3,14.2 8.6,14.5 9,14.5 C9.4,14.5 9.7,14.2 9.7,13.8 C9.7,13.4 9.4,13.1 9,13.1 L9,13.1 Z" id="Shape"></path>
                                <path d="M4.9,9.7 C4.1,9.7 3.5,9.1 3.5,8.3 C3.5,7.5 4.1,6.9 4.9,6.9 C5.7,6.9 6.3,7.5 6.3,8.3 C6.3,9.1 5.7,9.7 4.9,9.7 L4.9,9.7 Z M4.9,7.6 C4.5,7.6 4.2,7.9 4.2,8.3 C4.2,8.7 4.5,9 4.9,9 C5.3,9 5.6,8.7 5.6,8.3 C5.6,7.9 5.3,7.6 4.9,7.6 L4.9,7.6 Z" id="Shape"></path>
                                <path d="M26.1,9.7 C25.3,9.7 24.7,9.1 24.7,8.3 C24.7,7.5 25.3,6.9 26.1,6.9 C26.9,6.9 27.5,7.5 27.5,8.3 C27.5,9.1 26.9,9.7 26.1,9.7 L26.1,9.7 Z M26.1,7.6 C25.7,7.6 25.4,7.9 25.4,8.3 C25.4,8.7 25.7,9 26.1,9 C26.5,9 26.8,8.7 26.8,8.3 C26.9,7.9 26.5,7.6 26.1,7.6 L26.1,7.6 Z" id="Shape"></path>
                                <path d="M13.5,9.7 C12.7,9.7 12.1,9.1 12.1,8.3 C12.1,7.5 12.7,6.9 13.5,6.9 C14.3,6.9 14.9,7.5 14.9,8.3 C14.9,9.1 14.2,9.7 13.5,9.7 L13.5,9.7 Z M13.5,7.6 C13.1,7.6 12.8,7.9 12.8,8.3 C12.8,8.7 13.1,9 13.5,9 C13.9,9 14.2,8.7 14.2,8.3 C14.2,7.9 13.9,7.6 13.5,7.6 L13.5,7.6 Z" id="Shape"></path>
                                <path d="M12.4,19.5 L0.8,19.5 L0.8,18.8 L12.4,18.8 C12.8,18.8 13.1,18.5 13.1,18.1 L13.1,13.8 C13.1,13 13.7,12.4 14.5,12.4 L25,12.4 L25,13.1 L14.5,13.1 C14.1,13.1 13.8,13.4 13.8,13.8 L13.8,18.1 C13.8,18.9 13.2,19.5 12.4,19.5 L12.4,19.5 Z" id="Shape"></path>
                                <path d="M26.1,14.2 C25.3,14.2 24.7,13.6 24.7,12.8 C24.7,12 25.3,11.4 26.1,11.4 C26.9,11.4 27.5,12 27.5,12.8 C27.5,13.5 26.9,14.2 26.1,14.2 L26.1,14.2 Z M26.1,12.1 C25.7,12.1 25.4,12.4 25.4,12.8 C25.4,13.2 25.7,13.5 26.1,13.5 C26.5,13.5 26.8,13.2 26.8,12.8 C26.9,12.4 26.5,12.1 26.1,12.1 L26.1,12.1 Z" id="Shape"></path>
                                <rect id="Rectangle-path" x="4.6" y="9.4" width="0.7" height="13.7"></rect>
                            </g>
                        </g>
                    </g>
                </g>
            </g>
        </g>
    </g>
</svg>