<?xml version="1.0" encoding="utf-8"?>
<!-- Generator: Adobe Illustrator 19.0.0, SVG Export Plug-In . SVG Version: 6.00 Build 0)  -->
<svg version="1.1" id="Layer_1" xmlns="http://www.w3.org/2000/svg" xmlns:xlink="http://www.w3.org/1999/xlink" x="0px" y="0px"
	 viewBox="-190 286.1 410.2 41.9" style="enable-background:new -190 286.1 410.2 41.9;" xml:space="preserve">
<style type="text/css">
	.st0{fill:#FFFFFF;}
</style>
<g id="XMLID_1_">
	<polygon id="XMLID_3_" class="st0" points="-23.2,286.7 -23.2,307.5 -40.8,286.7 -40.8,286.7 -51.1,286.7 -51.1,327.2 -51.1,327.2 
		-43.5,327.2 -43.5,299.5 -19.7,327.2 -15.6,327.2 -15.6,286.7 -15.6,286.7 	"/>
	<path id="XMLID_17_" class="st0" d="M-69.7,310.7c0,6.7-2.1,10.9-7.6,11.1c-6-0.2-8.5-4.4-8.5-11.1v-23.9h-10.6v24.5
		c0,11,7.3,16.6,17.5,16.6c10.3,0,16.8-5.7,16.8-16.7v-24.3h-7.6C-69.7,286.9-69.7,310.7-69.7,310.7z"/>
	<polygon id="XMLID_18_" class="st0" points="-190,293.3 -175.2,293.3 -175.2,327.2 -164.6,327.2 -164.6,293.3 -149.8,293.3 
		-149.8,286.8 -190,286.8 	"/>
	<path id="XMLID_21_" class="st0" d="M-109.3,316c-0.4-1.8-1.1-3.5-2.2-5c-1-1.3-2.4-2.3-3.9-2.7c5.2-1.4,9.1-5.3,9.1-10.7
		c0-7.8-7.1-10.9-15.4-10.9h-19.8v40.5h10.6v-16.7c0.9,0,2.8,0,3.4,0c3.1,0,7.6,0.8,9.3,8.3c1.1,4,1.7,6.3,5.1,8.4
		c4.3,2.3,10.7-0.9,10.7-0.9l-0.7-3.4C-106.9,323.3-108.6,319.6-109.3,316z M-125.9,305.1h-5.1v-13.4h5.1c5.7,0,8.4,2.5,8.4,6.7
		C-117.5,302.9-120.2,305.1-125.9,305.1z"/>
	<path id="XMLID_22_" class="st0" d="M82.8,291.4c5.1,0,8.6,3.1,11,7l3.6-4.1c-2.8-4.7-8.4-8.2-16.1-8.2c-12.1,0-21.8,8.5-21.8,21.3
		s9.8,20.3,21.4,20.3c8.1,0,13.7-3.9,16.5-8.6l-3.5-3.1c-2.4,3.9-5.8,6.2-11,6.2c-6.6-0.1-11.6-5.8-11.6-15.6
		C71.2,296.9,75.5,291.4,82.8,291.4z"/>
	<path id="XMLID_25_" class="st0" d="M208,306.4v-0.1c5.5-0.5,10.6-3.5,10.6-9.7c0-7-6.8-9.9-15.1-9.9h-17.7v40.5h18.4
		c8.8,0,16-2.9,16-10.9C220.3,309.2,213.7,306.7,208,306.4z M196.4,291.7h4.5c4.9,0,7.2,1.6,7.2,6.1s-2.3,6.2-7.2,6.2h-4.5V291.7z
		 M201.3,322.2h-4.9v-13.4h4.9c5.5,0,8.4,2,8.4,6.8C209.7,320.6,206.9,322.2,201.3,322.2z"/>
	<polygon id="XMLID_27_" class="st0" points="32.5,286.8 23.1,286.8 6.4,304.3 6.4,286.8 -4.2,286.8 -4.2,327.2 6.4,327.2 
		6.4,313.3 10.8,308.7 23.4,327.2 35.8,327.2 18,301.4 	"/>
	<path id="XMLID_28_" class="st0" d="M168.1,310.7c0,6.7-2.1,10.9-7.6,11.1c-6-0.2-8.5-4.4-8.5-11.1v-23.9h-10.6v24.5
		c0,11,7.3,16.6,17.5,16.6c10.3,0,16.8-5.7,16.8-16.7v-24.3h-7.6L168.1,310.7L168.1,310.7z"/>
	<polygon id="XMLID_29_" class="st0" points="117,286.8 106.4,286.8 106.4,327.2 136.2,327.2 136.2,320.6 117,320.6 	"/>
</g>
</svg>
